<svg xmlns="http://www.w3.org/2000/svg" viewBox="0 0 365.35 265.9"><defs><style>.cls-1{fill:#fff;}.cls-2{fill:none;stroke:#fff;stroke-miterlimit:10;stroke-width:3px;}</style></defs><title>Ресурс 3</title><g id="Слой_2" data-name="Слой 2"><g id="Слой_1-2" data-name="Слой 1"><path class="cls-1" d="M116.53,247.54v18.08h-1.32v-2.56a6.2,6.2,0,0,1-5.29,2.84,6.49,6.49,0,0,1,0-13,6.05,6.05,0,0,1,5.17,2.68v-8.08Zm-6.43,6.74a5.15,5.15,0,0,0,0,10.28,5.41,5.41,0,0,0,5-3.46v-3.36A5.41,5.41,0,0,0,110.1,254.28Z"/><path class="cls-1" d="M131.4,264.45a2.82,2.82,0,0,0,1-.18v1.19a3.8,3.8,0,0,1-1.34.26,2,2,0,0,1-2.15-1.91,6.77,6.77,0,0,1-5.08,2.09c-2.17,0-4.32-1.14-4.32-3.67,0-3.07,2.84-4.05,5.48-4.05a15.05,15.05,0,0,1,3.9.54v-.82c0-2.17-1.4-3.62-3.95-3.62a11.34,11.34,0,0,0-4.44.88v-1.45a14.15,14.15,0,0,1,4.59-.77c3.28,0,5.24,1.83,5.24,5.14v5.29A1,1,0,0,0,131.4,264.45Zm-7.33.18a5.83,5.83,0,0,0,4.78-2.42v-2.27a15.16,15.16,0,0,0-3.7-.52c-2,0-4.18.67-4.18,2.74C121,263.86,122.5,264.63,124.07,264.63Z"/><path class="cls-1" d="M140.67,252.94a4.81,4.81,0,0,1,5,5v7.65h-1.48v-7.46a3.53,3.53,0,0,0-3.71-3.88,5.4,5.4,0,0,0-4.5,2.84v8.5h-1.47v-12.4h1.32v2.22A6.07,6.07,0,0,1,140.67,252.94Z"/><path class="cls-1" d="M155.41,252.94a6.65,6.65,0,0,1,3.75,1v1.42a6,6,0,0,0-3.56-1.09c-2.66,0-5.4,1.53-5.4,5.19,0,3.49,2.58,5.09,5.24,5.09a7.67,7.67,0,0,0,3.85-1V265a8.94,8.94,0,0,1-4.06.88c-3.2,0-6.5-2-6.5-6.4C148.73,254.93,152.19,252.94,155.41,252.94Z"/><path class="cls-1" d="M167.39,252.94c4.7,0,6.3,3.9,5.66,7.15h-10.3c.18,3.15,2.79,4.47,5.55,4.47a8.32,8.32,0,0,0,4-1V265a9.47,9.47,0,0,1-4.26.9c-3.61,0-6.81-2-6.81-6.48A6.11,6.11,0,0,1,167.39,252.94Zm.11,1.34a4.55,4.55,0,0,0-4.75,4.52h9A4,4,0,0,0,167.5,254.28Z"/><path class="cls-1" d="M186.73,252.94a9.19,9.19,0,0,1,4.32,1.06v1.39a8.62,8.62,0,0,0-4.21-1.13c-1.55,0-3.18.56-3.18,2,0,3.25,8.19,1.75,8.19,6.24,0,2.46-2.35,3.36-4.91,3.36a9.43,9.43,0,0,1-4.78-1.21v-1.45a9.11,9.11,0,0,0,4.7,1.32c1.91,0,3.52-.49,3.52-2,0-3.21-8.19-1.76-8.19-6.28C182.19,253.89,184.51,252.94,186.73,252.94Z"/><path class="cls-1" d="M200.65,252.94a6.6,6.6,0,0,1,3.74,1v1.42a6,6,0,0,0-3.56-1.09c-2.66,0-5.39,1.53-5.39,5.19,0,3.49,2.58,5.09,5.24,5.09a7.61,7.61,0,0,0,3.84-1V265a8.86,8.86,0,0,1-4.05.88c-3.2,0-6.5-2-6.5-6.4C194,254.93,197.42,252.94,200.65,252.94Z"/><path class="cls-1" d="M209,247.54v7.75a6,6,0,0,1,4.65-2.35,4.8,4.8,0,0,1,5,5v7.65h-1.47v-7.46a3.53,3.53,0,0,0-3.71-3.88,5.4,5.4,0,0,0-4.5,2.84v8.5h-1.47V247.54Z"/><path class="cls-1" d="M228.25,252.94a6.48,6.48,0,1,1-6.5,6.48A6.27,6.27,0,0,1,228.25,252.94Zm0,1.39a5.09,5.09,0,1,0,5,5.09A4.85,4.85,0,0,0,228.28,254.33Z"/><path class="cls-1" d="M243.61,252.94a6.48,6.48,0,1,1-6.5,6.48A6.27,6.27,0,0,1,243.61,252.94Zm0,1.39a5.09,5.09,0,1,0,5,5.09A4.85,4.85,0,0,0,243.64,254.33Z"/><path class="cls-1" d="M254.87,246.77v18.85H253.4V246.77Z"/><path class="cls-1" d="M6.7,166H24.77q10.17,0,15.94,4.31a14,14,0,0,1,5.77,11.82,14.26,14.26,0,0,1-3.8,10.17q-3.78,4-10.65,5.24l19.61,24.94H43.33l-19-24.29a5.72,5.72,0,0,1-.85.08H13.88v24.21H6.7Zm17.35,30.66q7.1,0,11.13-3.27a11.77,11.77,0,0,0,0-17.75q-4-3.27-11.13-3.27H13.88v24.29Z"/><path class="cls-1" d="M62.86,166h7.26v27.43h32.44V166h7.26v56.48h-7.26V195.07H70.12v27.44H62.86Z"/><path class="cls-1" d="M144,201.53,119.82,166h8.55l19.53,28.72L167.1,166h8.31l-24.12,35.5v21H144Z"/><path class="cls-1" d="M199.62,173.05H177.75v-7h50.92v7H206.88v49.46h-7.26Z"/><path class="cls-1" d="M240.2,166h7.27v27.43H279.9V166h7.26v56.48H279.9V195.07H247.47v27.44H240.2Z"/><path class="cls-1" d="M306.37,166h7.9L336,220.57,357.6,166h7.75v56.48h-7.26v-53.1l-21.22,53.1h-2l-21.22-53.1v53.1h-7.26Z"/><path class="cls-1" d="M165,42.67a7.78,7.78,0,0,0-3.05.69A14.61,14.61,0,0,0,155.66,49c-3.27,5.07-3.34,11.07-.17,13.11s8.61-.52,11.87-5.58a14.6,14.6,0,0,0,2.5-8c-.05-2.35-.88-4.15-2.34-5.09A4.66,4.66,0,0,0,165,42.67Z"/><path class="cls-2" d="M.32,234.93s33.78-7.38,55.1-28.53,64.93-43.65,84-46.57,39.62-4.32,27.17-12.34-45.41-1.1-35.6-22.42C143.22,98.53,281,56.12,284,52.73c4.86-5.54-15.21-22.78-37-37.41C224.41.23,225.56-3.28,216.21,8.68S162.7,82.34,161.55,91.44c-1,8,14,27.67,37.88,34.18,25.78,7,50-2,60.24-19.35S306.39,55,333.51,50l27.11-5"/></g></g></svg>